<svg width="149" height="181" viewBox="0 0 149 181" fill="none" xmlns="http://www.w3.org/2000/svg">
<path d="M134.25 78.627C142.396 78.627 149 72.0232 149 63.877C149 55.7308 142.396 49.127 134.25 49.127C126.104 49.127 119.5 55.7308 119.5 63.877C119.5 72.0232 126.104 78.627 134.25 78.627Z" fill="white"/>
<path d="M82.1131 134.544L75.0391 152.419L52.2151 167.336C50.0471 168.568 48.5811 170.895 48.5811 173.566C48.5811 177.524 51.7891 180.733 55.7481 180.733C57.2831 180.733 58.7031 180.246 59.8691 179.423C63.6301 177.052 82.2201 165.339 85.3641 163.543C88.8641 161.543 89.4891 158.418 89.4891 158.418L94.3641 142.418C94.3641 142.418 94.3641 142.418 88.6141 139.793C82.8641 137.168 82.1131 134.544 82.1131 134.544Z" fill="white"/>
<path d="M132.321 136.462C132.321 136.462 131.163 132.628 127.742 131.295C124.321 129.962 109.655 123.545 109.655 123.545L125.071 97.961C125.071 97.961 128.905 88.961 124.738 84.544C120.571 80.127 110.988 74.794 110.988 74.794H103.467L119.266 47.993C122.62 42.307 120.709 34.912 115.024 31.561L65.6328 2.447C59.9468 -0.905005 52.5538 1.005 49.2018 6.691L2.14382 86.519C-1.20718 92.204 0.701817 99.599 6.38782 102.951L55.7778 132.064C61.4638 135.416 68.8588 133.505 72.2098 127.822L95.1438 88.919H103.24L88.4898 115.128C88.4898 115.128 83.3558 124.342 88.1558 129.378C92.3648 133.794 100.823 136.294 100.823 136.294L118.073 142.795L123.174 174.086L123.183 174.085C123.732 177.498 126.682 180.108 130.25 180.108C134.208 180.108 137.416 176.899 137.416 172.941C137.416 172.752 137.402 172.566 137.388 172.381L137.416 172.377L132.321 136.462ZM10.9578 95.198C9.55682 94.372 9.07082 92.49 9.89682 91.09L56.9558 11.261C57.7818 9.85999 59.6628 9.373 61.0628 10.199L72.5838 16.991L22.4798 101.989L10.9578 95.198ZM64.4558 123.252C63.6298 124.652 61.7488 125.139 60.3488 124.313L30.2328 106.559L80.3398 21.563L110.453 39.316C111.855 40.142 112.34 42.023 111.515 43.423L93.0218 74.795H84.2388L64.3228 89.222C63.8808 89.474 63.4698 89.775 63.0928 90.113L63.0618 90.135L63.0638 90.138C61.6188 91.45 60.7058 93.336 60.7058 95.442C60.7058 99.4 63.9138 102.609 67.8728 102.609C69.4208 102.609 70.8508 102.113 72.0218 101.278L72.0238 101.281L72.0948 101.223C72.2768 101.09 72.4508 100.95 72.6188 100.8L82.2788 93.016L64.4558 123.252Z" fill="white"/>
</svg>
